<mxfile host="app.diagrams.net" modified="2023-11-22T13:16:13.572Z" agent="Mozilla/5.0 (Windows NT 10.0; Win64; x64) AppleWebKit/537.36 (KHTML, like Gecko) Chrome/119.0.0.0 Safari/537.36" etag="TSQHH4HaQ53pHsVrPUH4" version="22.1.3" type="device">
  <diagram name="Page-1" id="F2cUO56blXPAy76OU4Kd">
    <mxGraphModel dx="1034" dy="1012" grid="1" gridSize="10" guides="1" tooltips="1" connect="1" arrows="1" fold="1" page="1" pageScale="1" pageWidth="850" pageHeight="1100" math="0" shadow="0">
      <root>
        <mxCell id="0" />
        <mxCell id="1" parent="0" />
        <mxCell id="GZMY0WaWu02U7BAbaheR-2" value="" style="rounded=0;whiteSpace=wrap;html=1;rotation=90;" vertex="1" parent="1">
          <mxGeometry x="80" y="150" width="825" height="625" as="geometry" />
        </mxCell>
        <mxCell id="GZMY0WaWu02U7BAbaheR-4" value="&lt;font style=&quot;font-size: 24px;&quot;&gt;Login&lt;/font&gt;" style="ellipse;whiteSpace=wrap;html=1;" vertex="1" parent="1">
          <mxGeometry x="318.75" y="70" width="187.5" height="80" as="geometry" />
        </mxCell>
        <mxCell id="GZMY0WaWu02U7BAbaheR-7" value="&lt;font style=&quot;font-size: 24px;&quot;&gt;Add Student&lt;/font&gt;" style="ellipse;whiteSpace=wrap;html=1;" vertex="1" parent="1">
          <mxGeometry x="318.75" y="170" width="187.5" height="80" as="geometry" />
        </mxCell>
        <mxCell id="GZMY0WaWu02U7BAbaheR-8" value="Student Name" style="ellipse;whiteSpace=wrap;html=1;" vertex="1" parent="1">
          <mxGeometry x="325" y="390" width="100" height="70" as="geometry" />
        </mxCell>
        <mxCell id="GZMY0WaWu02U7BAbaheR-9" value="Course" style="ellipse;whiteSpace=wrap;html=1;" vertex="1" parent="1">
          <mxGeometry x="218.75" y="470" width="100" height="70" as="geometry" />
        </mxCell>
        <mxCell id="GZMY0WaWu02U7BAbaheR-10" value="Credit" style="ellipse;whiteSpace=wrap;html=1;" vertex="1" parent="1">
          <mxGeometry x="420" y="450" width="110" height="70" as="geometry" />
        </mxCell>
        <mxCell id="GZMY0WaWu02U7BAbaheR-11" value="Credit" style="ellipse;whiteSpace=wrap;html=1;" vertex="1" parent="1">
          <mxGeometry x="530" y="432.5" width="110" height="70" as="geometry" />
        </mxCell>
        <mxCell id="GZMY0WaWu02U7BAbaheR-12" value="&lt;font style=&quot;font-size: 24px;&quot;&gt;Edit Info&lt;/font&gt;" style="ellipse;whiteSpace=wrap;html=1;" vertex="1" parent="1">
          <mxGeometry x="318.75" y="610" width="187.5" height="80" as="geometry" />
        </mxCell>
        <mxCell id="GZMY0WaWu02U7BAbaheR-13" value="&lt;font style=&quot;font-size: 18px;&quot;&gt;Delete&lt;/font&gt;" style="ellipse;whiteSpace=wrap;html=1;" vertex="1" parent="1">
          <mxGeometry x="313.75" y="720" width="197.5" height="115" as="geometry" />
        </mxCell>
        <mxCell id="GZMY0WaWu02U7BAbaheR-14" value="&lt;font style=&quot;font-size: 18px;&quot;&gt;DataBase&lt;/font&gt;" style="ellipse;whiteSpace=wrap;html=1;" vertex="1" parent="1">
          <mxGeometry x="670" y="422.5" width="120" height="80" as="geometry" />
        </mxCell>
        <mxCell id="GZMY0WaWu02U7BAbaheR-16" value="" style="endArrow=none;dashed=1;html=1;rounded=0;exitX=1.004;exitY=0.644;exitDx=0;exitDy=0;exitPerimeter=0;entryX=0;entryY=0.5;entryDx=0;entryDy=0;" edge="1" parent="1" source="GZMY0WaWu02U7BAbaheR-4" target="GZMY0WaWu02U7BAbaheR-14">
          <mxGeometry width="50" height="50" relative="1" as="geometry">
            <mxPoint x="440" y="500" as="sourcePoint" />
            <mxPoint x="490" y="450" as="targetPoint" />
          </mxGeometry>
        </mxCell>
        <mxCell id="GZMY0WaWu02U7BAbaheR-17" value="" style="endArrow=none;dashed=1;html=1;rounded=0;exitX=1;exitY=0.5;exitDx=0;exitDy=0;entryX=0;entryY=0.5;entryDx=0;entryDy=0;" edge="1" parent="1" source="GZMY0WaWu02U7BAbaheR-7" target="GZMY0WaWu02U7BAbaheR-14">
          <mxGeometry width="50" height="50" relative="1" as="geometry">
            <mxPoint x="517" y="132" as="sourcePoint" />
            <mxPoint x="680" y="473" as="targetPoint" />
          </mxGeometry>
        </mxCell>
        <mxCell id="GZMY0WaWu02U7BAbaheR-18" value="" style="endArrow=none;dashed=1;html=1;rounded=0;exitX=1;exitY=0.5;exitDx=0;exitDy=0;entryX=0;entryY=0.5;entryDx=0;entryDy=0;" edge="1" parent="1" source="GZMY0WaWu02U7BAbaheR-12" target="GZMY0WaWu02U7BAbaheR-14">
          <mxGeometry width="50" height="50" relative="1" as="geometry">
            <mxPoint x="527" y="142" as="sourcePoint" />
            <mxPoint x="690" y="483" as="targetPoint" />
          </mxGeometry>
        </mxCell>
        <mxCell id="GZMY0WaWu02U7BAbaheR-19" value="" style="endArrow=none;dashed=1;html=1;rounded=0;exitX=0.991;exitY=0.415;exitDx=0;exitDy=0;exitPerimeter=0;entryX=0;entryY=0.5;entryDx=0;entryDy=0;" edge="1" parent="1" source="GZMY0WaWu02U7BAbaheR-13" target="GZMY0WaWu02U7BAbaheR-14">
          <mxGeometry width="50" height="50" relative="1" as="geometry">
            <mxPoint x="537" y="152" as="sourcePoint" />
            <mxPoint x="700" y="493" as="targetPoint" />
          </mxGeometry>
        </mxCell>
        <mxCell id="GZMY0WaWu02U7BAbaheR-20" value="" style="endArrow=none;dashed=1;html=1;rounded=0;exitX=0.5;exitY=1;exitDx=0;exitDy=0;entryX=0.5;entryY=0;entryDx=0;entryDy=0;" edge="1" parent="1" source="GZMY0WaWu02U7BAbaheR-7" target="GZMY0WaWu02U7BAbaheR-11">
          <mxGeometry width="50" height="50" relative="1" as="geometry">
            <mxPoint x="440" y="500" as="sourcePoint" />
            <mxPoint x="490" y="450" as="targetPoint" />
          </mxGeometry>
        </mxCell>
        <mxCell id="GZMY0WaWu02U7BAbaheR-21" value="" style="endArrow=none;dashed=1;html=1;rounded=0;exitX=0.5;exitY=1;exitDx=0;exitDy=0;entryX=0.5;entryY=0;entryDx=0;entryDy=0;" edge="1" parent="1" source="GZMY0WaWu02U7BAbaheR-7" target="GZMY0WaWu02U7BAbaheR-8">
          <mxGeometry width="50" height="50" relative="1" as="geometry">
            <mxPoint x="423" y="260" as="sourcePoint" />
            <mxPoint x="555" y="370" as="targetPoint" />
          </mxGeometry>
        </mxCell>
        <mxCell id="GZMY0WaWu02U7BAbaheR-22" value="" style="endArrow=none;dashed=1;html=1;rounded=0;entryX=0.5;entryY=0;entryDx=0;entryDy=0;" edge="1" parent="1" target="GZMY0WaWu02U7BAbaheR-10">
          <mxGeometry width="50" height="50" relative="1" as="geometry">
            <mxPoint x="410" y="250" as="sourcePoint" />
            <mxPoint x="565" y="380" as="targetPoint" />
          </mxGeometry>
        </mxCell>
        <mxCell id="GZMY0WaWu02U7BAbaheR-23" value="" style="endArrow=none;dashed=1;html=1;rounded=0;entryX=0.5;entryY=0;entryDx=0;entryDy=0;exitX=0.5;exitY=1;exitDx=0;exitDy=0;" edge="1" parent="1" source="GZMY0WaWu02U7BAbaheR-7" target="GZMY0WaWu02U7BAbaheR-9">
          <mxGeometry width="50" height="50" relative="1" as="geometry">
            <mxPoint x="420" y="260" as="sourcePoint" />
            <mxPoint x="466" y="480" as="targetPoint" />
          </mxGeometry>
        </mxCell>
        <mxCell id="GZMY0WaWu02U7BAbaheR-24" value="" style="endArrow=none;dashed=1;html=1;rounded=0;entryX=0.5;entryY=0;entryDx=0;entryDy=0;exitX=0.5;exitY=1;exitDx=0;exitDy=0;" edge="1" parent="1" source="GZMY0WaWu02U7BAbaheR-10" target="GZMY0WaWu02U7BAbaheR-12">
          <mxGeometry width="50" height="50" relative="1" as="geometry">
            <mxPoint x="440" y="500" as="sourcePoint" />
            <mxPoint x="490" y="450" as="targetPoint" />
          </mxGeometry>
        </mxCell>
        <mxCell id="GZMY0WaWu02U7BAbaheR-25" value="" style="endArrow=none;dashed=1;html=1;rounded=0;entryX=0.5;entryY=0;entryDx=0;entryDy=0;exitX=0.5;exitY=1;exitDx=0;exitDy=0;" edge="1" parent="1" source="GZMY0WaWu02U7BAbaheR-11" target="GZMY0WaWu02U7BAbaheR-12">
          <mxGeometry width="50" height="50" relative="1" as="geometry">
            <mxPoint x="466" y="550" as="sourcePoint" />
            <mxPoint x="423" y="620" as="targetPoint" />
          </mxGeometry>
        </mxCell>
        <mxCell id="GZMY0WaWu02U7BAbaheR-26" value="" style="endArrow=none;dashed=1;html=1;rounded=0;exitX=0.5;exitY=1;exitDx=0;exitDy=0;" edge="1" parent="1" source="GZMY0WaWu02U7BAbaheR-8">
          <mxGeometry width="50" height="50" relative="1" as="geometry">
            <mxPoint x="466" y="550" as="sourcePoint" />
            <mxPoint x="420" y="610" as="targetPoint" />
          </mxGeometry>
        </mxCell>
        <mxCell id="GZMY0WaWu02U7BAbaheR-27" value="" style="endArrow=none;dashed=1;html=1;rounded=0;exitX=0.5;exitY=1;exitDx=0;exitDy=0;" edge="1" parent="1" source="GZMY0WaWu02U7BAbaheR-9">
          <mxGeometry width="50" height="50" relative="1" as="geometry">
            <mxPoint x="476" y="560" as="sourcePoint" />
            <mxPoint x="420" y="610" as="targetPoint" />
          </mxGeometry>
        </mxCell>
        <mxCell id="GZMY0WaWu02U7BAbaheR-28" value="Actor" style="shape=umlActor;verticalLabelPosition=bottom;verticalAlign=top;html=1;outlineConnect=0;" vertex="1" parent="1">
          <mxGeometry x="30" y="400" width="60" height="170" as="geometry" />
        </mxCell>
        <mxCell id="GZMY0WaWu02U7BAbaheR-29" value="" style="endArrow=none;html=1;rounded=0;entryX=0;entryY=0.5;entryDx=0;entryDy=0;exitX=0.5;exitY=0.5;exitDx=0;exitDy=0;exitPerimeter=0;" edge="1" parent="1" source="GZMY0WaWu02U7BAbaheR-28" target="GZMY0WaWu02U7BAbaheR-4">
          <mxGeometry width="50" height="50" relative="1" as="geometry">
            <mxPoint x="440" y="500" as="sourcePoint" />
            <mxPoint x="490" y="450" as="targetPoint" />
          </mxGeometry>
        </mxCell>
        <mxCell id="GZMY0WaWu02U7BAbaheR-30" value="" style="endArrow=none;html=1;rounded=0;entryX=0;entryY=0.5;entryDx=0;entryDy=0;" edge="1" parent="1" target="GZMY0WaWu02U7BAbaheR-7">
          <mxGeometry width="50" height="50" relative="1" as="geometry">
            <mxPoint x="60" y="490" as="sourcePoint" />
            <mxPoint x="329" y="120" as="targetPoint" />
          </mxGeometry>
        </mxCell>
        <mxCell id="GZMY0WaWu02U7BAbaheR-31" value="" style="endArrow=none;html=1;rounded=0;exitX=0.5;exitY=0.5;exitDx=0;exitDy=0;exitPerimeter=0;entryX=0;entryY=0.5;entryDx=0;entryDy=0;" edge="1" parent="1" source="GZMY0WaWu02U7BAbaheR-28" target="GZMY0WaWu02U7BAbaheR-12">
          <mxGeometry width="50" height="50" relative="1" as="geometry">
            <mxPoint x="80" y="505" as="sourcePoint" />
            <mxPoint x="339" y="130" as="targetPoint" />
          </mxGeometry>
        </mxCell>
        <mxCell id="GZMY0WaWu02U7BAbaheR-32" value="" style="endArrow=none;html=1;rounded=0;exitX=0.5;exitY=0.5;exitDx=0;exitDy=0;exitPerimeter=0;entryX=0;entryY=0.5;entryDx=0;entryDy=0;" edge="1" parent="1" source="GZMY0WaWu02U7BAbaheR-28" target="GZMY0WaWu02U7BAbaheR-13">
          <mxGeometry width="50" height="50" relative="1" as="geometry">
            <mxPoint x="70" y="495" as="sourcePoint" />
            <mxPoint x="329" y="660" as="targetPoint" />
            <Array as="points" />
          </mxGeometry>
        </mxCell>
        <mxCell id="GZMY0WaWu02U7BAbaheR-33" value="&amp;lt;include&amp;gt;" style="text;html=1;strokeColor=none;fillColor=none;align=center;verticalAlign=middle;whiteSpace=wrap;rounded=0;" vertex="1" parent="1">
          <mxGeometry x="650" y="370" width="60" height="30" as="geometry" />
        </mxCell>
        <mxCell id="GZMY0WaWu02U7BAbaheR-34" value="&amp;lt;include&amp;gt;" style="text;html=1;strokeColor=none;fillColor=none;align=center;verticalAlign=middle;whiteSpace=wrap;rounded=0;" vertex="1" parent="1">
          <mxGeometry x="640" y="520" width="60" height="30" as="geometry" />
        </mxCell>
        <mxCell id="GZMY0WaWu02U7BAbaheR-35" value="&amp;lt;extend&amp;gt;" style="text;html=1;strokeColor=none;fillColor=none;align=center;verticalAlign=middle;whiteSpace=wrap;rounded=0;" vertex="1" parent="1">
          <mxGeometry x="506.25" y="320" width="60" height="30" as="geometry" />
        </mxCell>
        <mxCell id="GZMY0WaWu02U7BAbaheR-36" value="&amp;lt;extend&amp;gt;" style="text;html=1;strokeColor=none;fillColor=none;align=center;verticalAlign=middle;whiteSpace=wrap;rounded=0;" vertex="1" parent="1">
          <mxGeometry x="511.25" y="550" width="60" height="30" as="geometry" />
        </mxCell>
        <mxCell id="GZMY0WaWu02U7BAbaheR-37" value="&amp;lt;include&amp;gt;" style="text;html=1;strokeColor=none;fillColor=none;align=center;verticalAlign=middle;whiteSpace=wrap;rounded=0;" vertex="1" parent="1">
          <mxGeometry x="480" y="260" width="60" height="30" as="geometry" />
        </mxCell>
        <mxCell id="GZMY0WaWu02U7BAbaheR-38" value="&amp;lt;include&amp;gt;" style="text;html=1;strokeColor=none;fillColor=none;align=center;verticalAlign=middle;whiteSpace=wrap;rounded=0;" vertex="1" parent="1">
          <mxGeometry x="480" y="580" width="60" height="30" as="geometry" />
        </mxCell>
        <mxCell id="GZMY0WaWu02U7BAbaheR-39" value="&amp;lt;extend&amp;gt;" style="text;html=1;strokeColor=none;fillColor=none;align=center;verticalAlign=middle;whiteSpace=wrap;rounded=0;" vertex="1" parent="1">
          <mxGeometry x="470" y="392.5" width="60" height="30" as="geometry" />
        </mxCell>
        <mxCell id="GZMY0WaWu02U7BAbaheR-40" value="&amp;lt;extend&amp;gt;" style="text;html=1;strokeColor=none;fillColor=none;align=center;verticalAlign=middle;whiteSpace=wrap;rounded=0;" vertex="1" parent="1">
          <mxGeometry x="290" y="310" width="60" height="30" as="geometry" />
        </mxCell>
        <mxCell id="GZMY0WaWu02U7BAbaheR-41" value="&amp;lt;extend&amp;gt;" style="text;html=1;strokeColor=none;fillColor=none;align=center;verticalAlign=middle;whiteSpace=wrap;rounded=0;" vertex="1" parent="1">
          <mxGeometry x="330" y="502.5" width="60" height="30" as="geometry" />
        </mxCell>
        <mxCell id="GZMY0WaWu02U7BAbaheR-42" value="&amp;lt;extend&amp;gt;" style="text;html=1;strokeColor=none;fillColor=none;align=center;verticalAlign=middle;whiteSpace=wrap;rounded=0;" vertex="1" parent="1">
          <mxGeometry x="341.25" y="540" width="60" height="30" as="geometry" />
        </mxCell>
        <mxCell id="GZMY0WaWu02U7BAbaheR-43" value="&amp;lt;extend&amp;gt;" style="text;html=1;strokeColor=none;fillColor=none;align=center;verticalAlign=middle;whiteSpace=wrap;rounded=0;" vertex="1" parent="1">
          <mxGeometry x="382.5" y="360" width="60" height="30" as="geometry" />
        </mxCell>
        <mxCell id="GZMY0WaWu02U7BAbaheR-44" value="&amp;lt;extend&amp;gt;" style="text;html=1;strokeColor=none;fillColor=none;align=center;verticalAlign=middle;whiteSpace=wrap;rounded=0;" vertex="1" parent="1">
          <mxGeometry x="401.25" y="520" width="60" height="30" as="geometry" />
        </mxCell>
      </root>
    </mxGraphModel>
  </diagram>
</mxfile>
